<?xml version="1.0" encoding="UTF-8"?>
<svg id="Layer_1" data-name="Layer 1" xmlns="http://www.w3.org/2000/svg" viewBox="0 0 5669.29 2551.18">
  <defs>
    <style>
      .cls-1 {
        font-size: 98.94px;
      }

      .cls-1, .cls-2, .cls-3, .cls-4, .cls-5, .cls-6, .cls-7, .cls-8, .cls-9 {
        font-family: ObegeFM-Regular, 'Obege FM';
      }

      .cls-1, .cls-6, .cls-10, .cls-11, .cls-12 {
        fill: #bb515f;
      }

      .cls-13, .cls-4 {
        letter-spacing: 0em;
      }

      .cls-14 {
        letter-spacing: 0em;
      }

      .cls-15 {
        letter-spacing: 0em;
      }

      .cls-16 {
        letter-spacing: 0em;
      }

      .cls-17 {
        letter-spacing: -.03em;
      }

      .cls-18 {
        letter-spacing: 0em;
      }

      .cls-19 {
        font-family: AfekDLv2AAA-DemiBold, 'Afek DL v2 AAA';
      }

      .cls-19, .cls-20, .cls-21 {
        fill: #9f9f9f;
      }

      .cls-19, .cls-21 {
        font-size: 122.21px;
        font-weight: 300;
      }

      .cls-22 {
        letter-spacing: 0em;
      }

      .cls-2, .cls-3, .cls-4, .cls-5, .cls-6, .cls-7, .cls-8, .cls-9 {
        font-size: 197.88px;
      }

      .cls-23 {
        letter-spacing: .02em;
      }

      .cls-24 {
        letter-spacing: -.02em;
      }

      .cls-25 {
        letter-spacing: 0em;
      }

      .cls-26 {
        letter-spacing: 0em;
      }

      .cls-27, .cls-3 {
        letter-spacing: 0em;
      }

      .cls-28 {
        letter-spacing: 0em;
      }

      .cls-29 {
        letter-spacing: 0em;
      }

      .cls-30 {
        fill: none;
        stroke: #bb515f;
        stroke-width: 4px;
      }

      .cls-30, .cls-12 {
        stroke-miterlimit: 10;
      }

      .cls-31 {
        letter-spacing: -.01em;
      }

      .cls-32 {
        letter-spacing: 0em;
      }

      .cls-33 {
        letter-spacing: 0em;
      }

      .cls-5 {
        letter-spacing: 0em;
      }

      .cls-34 {
        letter-spacing: 0em;
      }

      .cls-35 {
        letter-spacing: 0em;
      }

      .cls-36 {
        letter-spacing: -.04em;
      }

      .cls-20 {
        font-size: 125px;
      }

      .cls-20, .cls-10 {
        font-family: AfekDLv2AAA-Medium, 'Afek DL v2 AAA';
      }

      .cls-20, .cls-10, .cls-37 {
        font-weight: 500;
      }

      .cls-7 {
        letter-spacing: -.02em;
      }

      .cls-8 {
        letter-spacing: -.01em;
      }

      .cls-38 {
        letter-spacing: 0em;
      }

      .cls-39 {
        letter-spacing: -.01em;
      }

      .cls-40 {
        letter-spacing: 0em;
      }

      .cls-10 {
        font-size: 112.88px;
      }

      .cls-41 {
        letter-spacing: -.02em;
      }

      .cls-42 {
        letter-spacing: 0em;
      }

      .cls-43 {
        letter-spacing: -.04em;
      }

      .cls-21 {
        font-family: AfekDLv2AAA-Light, 'Afek DL v2 AAA';
      }

      .cls-44 {
        letter-spacing: 0em;
      }

      .cls-45 {
        letter-spacing: 0em;
      }

      .cls-46 {
        letter-spacing: 0em;
      }

      .cls-9 {
        letter-spacing: -.09em;
      }

      .cls-47 {
        letter-spacing: -.04em;
      }

      .cls-48 {
        letter-spacing: -.01em;
      }

      .cls-49 {
        letter-spacing: 0em;
      }

      .cls-50 {
        letter-spacing: -.01em;
      }

      .cls-51 {
        letter-spacing: -.09em;
      }

      .cls-52 {
        letter-spacing: 0em;
      }

      .cls-53 {
        letter-spacing: 0em;
      }

      .cls-12 {
        font-family: LiaShaharit-Regular, 'Lia Shaharit';
        font-size: 740.31px;
        stroke: #000;
      }

      .cls-54 {
        letter-spacing: .01em;
      }

      .cls-55 {
        letter-spacing: -.02em;
      }

      .cls-37 {
        font-family: RagSans-1.4-Medium, 'Rag Sans-1.4';
        font-size: 136.81px;
      }

      .cls-56 {
        letter-spacing: 0em;
      }

      .cls-57 {
        letter-spacing: 0em;
      }

      .cls-58 {
        letter-spacing: -.01em;
      }

      .cls-59 {
        letter-spacing: 0em;
      }

      .cls-60 {
        letter-spacing: 0em;
      }

      .cls-61 {
        letter-spacing: 0em;
      }
    </style>
  </defs>
  <text class="cls-11" transform="translate(3314.53 1033.77)"><tspan class="cls-37" x="0" y="0" xml:space="preserve">  </tspan><tspan class="cls-2" x="56.91" y="0">ןמ</tspan><tspan class="cls-9" x="233.02" y="0">י</tspan><tspan class="cls-4" x="265.87" y="0">נ</tspan><tspan class="cls-3" x="344.04" y="0">י</tspan><tspan class="cls-2" x="394.5" y="0">ירג</tspan><tspan class="cls-4" x="680.63" y="0"> </tspan><tspan class="cls-2" x="744.15" y="0">ו</tspan><tspan class="cls-7" x="800.55" y="0">ה</tspan><tspan class="cls-2" x="922.44" y="0">יעשי</tspan><tspan class="cls-4" x="1261.8" y="0"> </tspan><tspan class="cls-2" x="1325.33" y="0">ם</tspan><tspan class="cls-5" x="1467.01" y="0">ה</tspan><tspan class="cls-8" x="1594.24" y="0">ר</tspan><tspan class="cls-2" x="1707.63" y="0">בא</tspan></text>
  <text class="cls-19" transform="translate(4215.18 1193.05)"><tspan x="0" y="0">א</tspan><tspan class="cls-60" x="83.71" y="0">”</tspan><tspan x="130.76" y="0">ט</tspan><tspan class="cls-28" x="216.67" y="0">י</tspan><tspan x="251.38" y="0">לש</tspan><tspan class="cls-29" x="428.83" y="0"> </tspan><tspan class="cls-53" x="460.72" y="0">לא</tspan><tspan class="cls-26" x="618.49" y="0">ר</tspan><tspan x="690.59" y="0">שי</tspan><tspan class="cls-32" x="828.57" y="0"> </tspan><tspan class="cls-47" x="860.7" y="0">ר</tspan><tspan x="927.19" y="0">”ב</tspan></text>
  <text class="cls-10" transform="translate(4117.9 1320.25)"><tspan class="cls-31" x="0" y="0">ח</tspan><tspan class="cls-35" x="76.08" y="0">ר</tspan><tspan x="142.45" y="0">פת</tspan><tspan class="cls-57" x="296.75" y="0">-</tspan><tspan x="341.89" y="0">ר</tspan><tspan class="cls-59" x="408.6" y="0">י</tspan><tspan class="cls-14" x="438.85" y="0">אמ</tspan><tspan class="cls-18" x="597.44" y="0"> </tspan><tspan class="cls-36" x="625.88" y="0">ת</tspan><tspan class="cls-14" x="702.64" y="0">יב</tspan><tspan class="cls-54" x="805.01" y="0"> </tspan><tspan x="835.38" y="0">תב</tspan><tspan class="cls-42" x="988.77" y="0">י</tspan><tspan x="1019.36" y="0">שי</tspan></text>
  <text class="cls-21" transform="translate(4831.69 1458.43)"><tspan class="cls-43" x="0" y="0">ק</tspan><tspan class="cls-61" x="78.33" y="0">רב</tspan><tspan class="cls-40" x="231.22" y="0"> </tspan><tspan class="cls-52" x="263.24" y="0">י</tspan><tspan x="293.67" y="0">נב</tspan></text>
  <text class="cls-20" transform="translate(3217.03 1048.6)"><tspan class="cls-49" x="0" y="0">י</tspan><tspan x="33.12" y="0">”נ</tspan></text>
  <text class="cls-6" transform="translate(582.38 1053.09)"><tspan x="0" y="0"> </tspan><tspan class="cls-16" x="65.5" y="0"> </tspan><tspan class="cls-15" x="131.39" y="0">ג</tspan><tspan class="cls-13" x="252.49" y="0">ר</tspan><tspan class="cls-15" x="366.47" y="0">ב</tspan><tspan class="cls-41" x="496.68" y="0">ר</tspan><tspan class="cls-51" x="608.68" y="0">ב</tspan><tspan class="cls-58" x="719.5" y="0">ל</tspan><tspan x="802.81" y="0">יז </tspan><tspan class="cls-27" x="1033.73" y="0">ה</tspan><tspan x="1159.19" y="0">יתב</tspan></text>
  <text class="cls-19" transform="translate(464.35 1197.19)"><tspan x="0" y="0">א</tspan><tspan class="cls-60" x="83.71" y="0">”</tspan><tspan x="130.76" y="0">ט</tspan><tspan class="cls-28" x="216.67" y="0">י</tspan><tspan x="251.38" y="0">לש</tspan><tspan class="cls-53" x="428.83" y="0"> </tspan><tspan x="460.11" y="0">בד</tspan><tspan class="cls-32" x="614.58" y="0"> </tspan><tspan class="cls-47" x="646.72" y="0">ר</tspan><tspan x="713.2" y="0">”ב</tspan></text>
  <text class="cls-10" transform="translate(465.64 1323.18)"><tspan x="0" y="0">רקוצ</tspan><tspan class="cls-44" x="245.84" y="0">-</tspan><tspan class="cls-48" x="290.31" y="0">ה</tspan><tspan x="364.13" y="0">נח</tspan><tspan class="cls-59" x="487.28" y="0"> </tspan><tspan class="cls-50" x="516.06" y="0">י</tspan><tspan class="cls-33" x="545.07" y="0">כ</tspan><tspan x="611.77" y="0">רד </tspan><tspan class="cls-38" x="779.05" y="0">ר</tspan><tspan class="cls-50" x="845.31" y="0">נ</tspan><tspan class="cls-55" x="889.33" y="0">י</tspan><tspan x="917.33" y="0">מס</tspan></text>
  <text class="cls-21" transform="translate(451.72 1459.58)"><tspan class="cls-25" x="0" y="0">ד</tspan><tspan class="cls-45" x="77.6" y="0">ע</tspan><tspan x="157.16" y="0">לא</tspan></text>
  <text class="cls-20" transform="translate(448.74 1060.9)"><tspan class="cls-39" x="0" y="0">‘</tspan><tspan class="cls-34" x="22.88" y="0">יחת</tspan></text>
  <text class="cls-12" transform="translate(1802.54 1644.44)"><tspan x="0" y="0"></tspan><tspan class="cls-22" x="706.98" y="0"></tspan><tspan x="980.9" y="0">מאורסים</tspan></text>
  <!-- <g>
    <path class="cls-30" d="m1855.47,1345.19c10.61,5.92,22.08,8.88,34.42,8.88h389.4c21.21,0,37.87,1.98,49.97,5.92,12.09,3.96,21.71,12.96,28.87,27.02,7.15,14.07,10.73,35.9,10.73,65.52v28.87c0,4.94-.74,9.38-2.22,13.33-1.48,3.96-4.44,9.38-8.88,16.29l-34.79,51.08c-5.44,7.9-11.36,13.33-17.77,16.29-6.42,2.96-16.78,6.42-31.09,10.36-14.32,3.96-44.18,8.88-89.58,14.81-45.41,5.92-91.8,11.84-139.18,17.77-63.67,7.4-113.39,13.57-149.17,18.51-35.79,4.93-56.15,9.13-61.08,12.58,3.94-25.17,6.66-51.69,8.14-79.58,1.48-27.88,2.22-67.48,2.22-118.82,0-12.33-1.98-22.32-5.92-29.98-3.96-7.65-9.38-14.68-16.29-21.1-6.92-6.91-10.36-16.03-10.36-27.39,0-17.77,8.88-36.76,26.65-57,0,11.84,5.3,20.73,15.92,26.65Zm300.19,207.29c61.19-7.89,104.26-15.29,129.18-22.21,24.92-6.91,37.39-14.55,37.39-22.95v-25.91c0-23.69-.87-39.98-2.59-48.86-1.73-8.88-5.55-14.68-11.47-17.4-5.92-2.71-16.54-4.07-31.83-4.07h-381.26l1.48,95.5c.49,18.26,0,33.2-1.48,44.79-1.48,11.6-3.96,21.84-7.4,30.72,117.45-11.84,206.79-21.71,267.99-29.61Z"/>
    <path class="cls-30" d="m2448.08,1482.88c5.92-11.84,8.88-22.7,8.88-32.57,0-18.25-11.84-31.83-35.53-40.72-16.78-6.41-25.17-17.27-25.17-32.57,0-17.27,10.85-35.54,32.57-54.78-.99,2.48-1.48,5.92-1.48,10.36,0,5.44,2.09,9.88,6.29,13.33,4.19,3.46,11.48,7.16,21.84,11.1,24.67,9.88,37.02,25.91,37.02,48.12,0,12.34-3.96,25.3-11.84,38.87-7.9,13.58-18.76,26.54-32.57,38.87Z"/>
    <path class="cls-30" d="m2533.21,1347.04c4.93-10.61,11.1-19.86,18.51-27.76.98,4.44,2.22,9.51,3.7,15.18,1.48,5.68,4.68,10.25,9.62,13.7,4.93,3.46,12.33,5.18,22.21,5.18l91.8-.74c19.73,0,36.39,1.98,49.97,5.92,13.57,3.96,25.04,13.08,34.42,27.39,9.37,14.32,14.55,35.54,15.55,63.67.49,3.46.74,10.12.74,19.99,0,26.17-6.79,52.82-20.36,79.95-13.58,27.15-39.36,51.33-77.36,72.55-14.81,8.4-30.85,12.58-48.12,12.58s-34.31-4.56-49.6-13.7c-15.3-9.13-27.65-21.71-37.02-37.76-9.38-16.03-14.07-34.42-14.07-55.15,0-26.65,6.66-50.58,19.99-71.81,13.33-21.21,30.1-32.82,50.34-34.79-7.9,8.4-14.19,19.62-18.88,33.68-4.7,14.07-7.03,28.5-7.03,43.31,0,20.24,6.29,38.5,18.88,54.78,12.59,16.29,28.99,24.43,49.23,24.43,12.83,0,26.4-3.94,40.72-11.84,16.29-8.39,28-18.25,35.16-29.61,7.15-11.35,10.73-25.91,10.73-43.68,0-28.13-4.57-48.24-13.7-60.33-9.14-12.09-22.09-18.14-38.87-18.14-20.24,0-34.79.25-43.68.74l-44.42.74c-26.65,0-44.3-3.2-52.93-9.62-8.64-6.41-12.96-15.79-12.96-28.13,0-9.87,2.46-20.1,7.4-30.72Z"/>
    <path class="cls-30" d="m2830.08,1314.83c0,15.8,2.96,26.28,8.88,31.46,5.92,5.18,14.81,7.77,26.65,7.77h88.1c17.77,0,32.32,2.35,43.68,7.03,11.35,4.7,20.36,14.32,27.02,28.87,6.66,14.56,9.99,35.9,9.99,64.04v98.46c0,14.32-2.22,26.54-6.66,36.65-4.44,10.12-10.36,19.25-17.77,27.39s-14.56,15.43-21.47,21.84v-143.62c0-22.21-1.61-39.24-4.81-51.08-3.22-11.84-8.64-20.23-16.29-25.17-7.66-4.93-18.63-7.4-32.94-7.4h-94.76c-30.11,0-45.16-9.87-45.16-29.61,0-10.36,3.7-21.84,11.1-34.42,7.4-12.59,15.55-23.32,24.43-32.2Z"/>
    <path class="cls-30" d="m3076.6,1350.74c6.41-9.62,14.31-19.12,23.69-28.5v6.66c0,7.9,1.97,13.82,5.92,17.77,4.44,4.44,10.61,8.4,18.51,11.84,9.37,4.94,16.77,10.12,22.21,15.55,5.42,5.44,10.11,14.93,14.07,28.5,3.94,13.58,5.92,33.2,5.92,58.85v94.02c0,19.25-3.83,35.17-11.47,47.75-7.66,12.58-18.64,25.54-32.94,38.87v-160.65c0-17.77-1.73-31.71-5.18-41.83-3.46-10.11-7.53-17.51-12.21-22.21-4.7-4.69-10.74-9.25-18.14-13.7-6.92-3.45-11.97-7.15-15.18-11.1-3.22-3.94-4.81-10.11-4.81-18.51,0-5.92,3.2-13.7,9.62-23.32Z"/>
    <path class="cls-30" d="m2472.13,1972.97c-25.41-29.61-38.13-63.92-38.13-102.9,0-33.57,9.14-65.89,27.39-96.98,18.26-31.09,44.3-56.39,78.1-75.88,33.81-19.5,73.17-29.24,118.08-29.24,32.57,0,64.9,5.18,96.98,15.55,32.09,10.36,62.68,23.44,91.8,39.24,29.13,15.79,65.64,37.26,109.57,64.41,50.34,30.1,84.65,50.34,102.9,60.71,56.76-53.3,97.48-105.86,122.15-157.68,24.67-51.82,37.01-108.83,37.01-171.01,0-33.06-2.96-68.11-8.88-105.12-1.48-9.87-2.22-18.75-2.22-26.65,0-12.33,2.34-23.07,7.03-32.2,4.68-9.13,12.96-17.64,24.8-25.54l7.4-5.18c11.35,56.26,41.94,110.56,91.8,162.87-.99-6.91-1.48-16.29-1.48-28.13,0-63.67,30.84-102.9,92.54-117.71l44.42,68.85c-15.3-5.42-27.89-8.14-37.76-8.14-10.86,0-20.36,2.72-28.5,8.14-8.14,5.44-16.66,13.82-25.54,25.17-14.81,20.24-20.98,43.19-18.51,68.85,6.41,7.9,13.81,15.67,22.21,23.32,8.39,7.66,16.29,14.69,23.69,21.1,13.81,10.86,23.81,20.12,29.98,27.76,6.17,7.66,9.25,16.41,9.25,26.28,0,10.86-4.7,23.94-14.07,39.24-5.44-9.87-12.58-18.75-21.47-26.65-8.88-7.89-22.71-18.99-41.46-33.31-30.61-22.21-53.3-40.72-68.11-55.52-18.76-17.27-34.05-35.78-45.9-55.52.98,14.81,1.48,25.91,1.48,33.31,0,48.86-7.66,93.04-22.95,132.51-15.3,39.48-36.4,75.88-63.3,109.2s-61.32,69.22-103.27,107.71l41.46,19.25c37.51-28.13,72.55-49.36,105.12-63.67,32.57-14.32,63.3-23.69,92.17-28.13,28.87-4.44,61.32-6.66,97.35-6.66,21.21,0,42.81,3.08,64.78,9.25,21.96,6.17,40.35,15.55,55.15,28.13,14.81,12.58,22.21,28,22.21,46.27,0,21.21-8.4,39.85-25.17,55.89-16.78,16.03-39.12,28.25-67,36.64-27.89,8.39-58.11,12.59-90.69,12.59-6.92,0-16.78-.5-29.61-1.48-33.07-2.96-65.89-10.25-98.46-21.84-32.57-11.6-74.03-29.74-124.37-54.41-31.58,27.14-56.38,58.23-74.4,93.28-18.01,35.04-27.02,73.53-27.02,115.49-.98-10.86-1.48-19.25-1.48-25.17,0-35.05,7.9-68.73,23.69-101.05,15.8-32.33,36.77-60.09,62.93-83.28l5.18-4.44-39.98-19.25c-62.67,57.25-128.56,100.92-197.66,131.03-69.09,30.1-137.44,45.16-205.06,45.16-25.17,0-49.84-2.22-74.03-6.66-49.35-8.88-86.73-28.13-112.16-57.74Zm24.06,4.07c31.59,30.35,80.69,45.53,147.32,45.53,74.03,0,146.09-14.81,216.17-44.42,70.09-29.61,133.75-70.58,191-122.89l-59.22-33.31-54.04-31.09c-40.46-23.69-74.77-42.94-102.9-57.74-28.13-14.81-58.11-27.28-89.95-37.39-31.83-10.12-63.04-15.18-93.65-15.18s-63.17,8.14-94.76,24.43c-31.58,16.29-57.37,38.37-77.36,66.26-19.99,27.88-29.98,58.11-29.98,90.69,0,46.38,15.8,84.76,47.38,115.12Zm729.57-52.19c22.95,9.37,45.27,16.16,67,20.36,21.71,4.19,47.12,6.29,76.25,6.29,31.58,0,59.96-3.96,85.14-11.84,25.17-7.9,44.66-18.88,58.48-32.94,13.81-14.07,20.73-29.74,20.73-47.01,0-12.34-5.31-24.19-15.92-35.53-10.62-11.36-26.91-20.73-48.86-28.13-21.97-7.4-48.99-11.1-81.06-11.1-44.42,0-90.57,8.14-138.44,24.43-47.88,16.29-90.56,39.24-128.07,68.85,46.89,21.71,81.8,37.26,104.75,46.64Z"/>
    <path class="cls-30" d="m3598.5,1595.04c4.93-11.59,10.48-19.86,16.66-24.8,6.17-4.93,13.94-9.37,23.32-13.33l31.09-11.84c18.75-6.41,31.46-11.59,38.12-15.55,6.66-3.94,11.22-9.5,13.7-16.66,2.46-7.15,3.7-19.36,3.7-36.65,0-55.27-19.25-82.91-57.74-82.91-16.78,0-33.07,5.18-48.86,15.55-15.8,10.36-28.63,23.32-38.5,38.87-9.88,15.55-15.06,30.72-15.55,45.53l-2.96,72.55c-.5,11.84-2.85,22.34-7.03,31.46-4.2,9.14-8.77,16.54-13.7,22.21-4.94,5.68-13.33,14.68-25.17,27.02l2.96-165.09c.49-20.23-1.11-35.54-4.81-45.9-3.7-10.36-9.01-20.47-15.92-30.35-3.96-5.42-7.03-10.61-9.25-15.55-2.22-4.93-3.33-11.1-3.33-18.51,0-6.91,2.22-14.18,6.66-21.84,4.44-7.65,12.09-16.9,22.95-27.76v6.66c0,7.9,1.97,13.82,5.92,17.77l14.07,11.1c7.4,4.44,13.2,9.14,17.4,14.07,4.19,4.94,7.4,12.84,9.62,23.69,2.22,10.86,2.83,25.91,1.85,45.16,13.81-35.54,31.34-60.71,52.56-75.51,21.21-14.81,42.44-22.21,63.67-22.21,66.63,0,99.94,33.81,99.94,101.42l-1.48,24.43c-.5,5.92-5.68,18.14-15.55,36.64-9.88,18.51-20.36,36.16-31.46,52.93-11.1,16.78-19.13,26.65-24.06,29.61-18.26,9.88-39.98,18.76-65.15,26.65-16.29,5.92-28.26,10.73-35.91,14.44-7.66,3.7-14.69,9.25-21.1,16.66,3.94-21.71,8.39-38.37,13.33-49.97Z"/>
  </g> -->
  <text class="cls-1" transform="translate(1819.47 1755.07)"><tspan class="cls-17" x="0" y="0">ה</tspan><tspan class="cls-56" x="59.86" y="0">&quot;</tspan><tspan class="cls-23" x="94.29" y="0">פ</tspan><tspan x="159.5" y="0">שת </tspan><tspan class="cls-46" x="316.91" y="0">ן</tspan><tspan class="cls-23" x="343.63" y="0">ו</tspan><tspan x="373.41" y="0">שח</tspan><tspan class="cls-24" x="496.79" y="0"> </tspan><tspan x="527.56" y="0">ז”י</tspan></text>
</svg>